<?xml version="1.0" encoding="UTF-8"?><svg id="b" xmlns="http://www.w3.org/2000/svg" viewBox="0 0 110.08 39.76"><defs><style>.d{fill:#fff;}</style></defs><g id="c"><g><path class="d" d="M86.23,32.83c-1.1,1.16-2.46,1.71-4.06,1.71s-2.91-.55-4.01-1.71c-1.11-1.16-1.71-2.52-1.71-4.07,0-1.66,.6-3.02,1.71-4.12,1.1-1.15,2.46-1.71,4.01-1.66,1.61-.05,2.96,.5,4.11,1.66,1.06,1.1,1.61,2.46,1.66,4.12-.05,1.56-.61,2.91-1.71,4.07m3.67-11.86c-2.16-2.16-4.77-3.22-7.73-3.22s-5.52,1.06-7.63,3.22c-2.16,2.16-3.21,4.77-3.21,7.79s1.05,5.63,3.21,7.74c2.11,2.16,4.67,3.27,7.63,3.27s5.57-1.1,7.73-3.27c2.11-2.11,3.16-4.72,3.16-7.74s-1.06-5.63-3.16-7.79"/><path class="d" d="M48.79,29.51l1-.55v2.11c0,1.8-.5,3.06-1.45,3.77-1,.7-2.06,1.06-3.27,1.06-.75,0-1.35-.2-1.86-.6-.5-.46-.75-1.11-.75-2.06,0-1.05,.4-1.81,1.25-2.37,.5-.3,1.35-.55,2.46-.7l2.61-.65m-2.21-11.81c-3.51-.05-5.97,.9-7.38,2.76-.9,1.15-1.35,2.67-1.5,4.58h5.22c.1-.91,.4-1.51,.75-1.91,.55-.71,1.45-1.06,2.76-1.01,1.1-.05,1.96,.15,2.56,.5,.6,.3,.85,.91,.9,1.76,0,.7-.4,1.26-1.2,1.61l-4.02,.65c-1.86,.25-3.36,.7-4.52,1.36-1.96,1.16-2.91,3.01-2.86,5.68-.05,1.85,.55,3.37,1.75,4.47,1.05,.91,2.51,1.41,4.27,1.46,2.86-.05,5.12-.75,6.72-2.16v2.16h5.22v-15.38c0-2.51-.91-4.27-2.61-5.18-1.81-.96-3.81-1.41-6.07-1.36"/><path class="d" d="M13.45,12.37c-3.76-.05-6.88,1.26-9.49,3.97-2.66,2.66-3.96,5.83-3.96,9.6s1.3,6.99,3.96,9.65c2.61,2.61,5.72,3.92,9.49,3.92,3.01,0,5.78-.91,8.18-2.77,2.36-1.91,3.92-4.27,4.72-7.19h-5.47c-.7,1.41-1.71,2.56-2.96,3.47-1.41,.86-2.86,1.31-4.47,1.31-2.31,0-4.26-.86-5.87-2.47-1.65-1.66-2.46-3.61-2.41-5.93-.05-2.31,.76-4.27,2.41-5.93,1.61-1.61,3.56-2.46,5.87-2.46,1.61,0,3.06,.45,4.47,1.36,1.26,.86,2.26,2.06,2.96,3.47h5.47c-.8-2.92-2.36-5.33-4.72-7.19-2.41-1.91-5.17-2.87-8.18-2.82"/><rect class="d" x="29.01" y="12.37" width="5.22" height="27.25"/><path class="d" d="M67.46,18.45c-1.4,.55-2.65,1.51-3.71,2.96v-2.66l-4.97-.05v20.91h5.17v-10c0-1.71,.2-2.91,.66-3.67,.35-.8,1-1.46,1.81-2.01,.9-.61,1.85-.91,2.86-.91l1.6,.1-.05-5.33-1.36,.1-2.01,.55"/><polyline class="d" points="93.96 18.55 106.57 5.93 103.25 2.62 90.65 15.23 93.96 18.55"/><rect class="d" x="80.46" width="4.67" height="13.52"/><rect class="d" x="96.27" y="23.78" width="13.81" height="4.67"/></g></g></svg>